<?xml version="1.0" encoding="utf-8"?>
<!-- Generator: Adobe Illustrator 16.0.0, SVG Export Plug-In . SVG Version: 6.00 Build 0)  -->
<!DOCTYPE svg PUBLIC "-//W3C//DTD SVG 1.1//EN" "http://www.w3.org/Graphics/SVG/1.1/DTD/svg11.dtd">
<svg version="1.1" id="Layer_1" xmlns="http://www.w3.org/2000/svg" xmlns:xlink="http://www.w3.org/1999/xlink" x="0px" y="0px"
	 width="200px" height="200px" viewBox="0 0 200 200" enable-background="new 0 0 200 200" xml:space="preserve">
<rect x="31.191" y="31.193" transform="matrix(0.7071 0.7071 -0.7071 0.7071 99.9079 -41.382)" fill="#000000" width="137.429" height="137.428"/>
<g>
	<g>
		<path fill="#FFFFFF" d="M72.931,102.272l11.968,11.966c6.653,6.651,6.653,17.44,0,24.09c-6.652,6.656-17.439,6.656-24.093,0
			l-11.967-11.969l7.934-7.933L68.741,130.4c2.271,2.268,5.957,2.268,8.226,0c2.271-2.274,2.271-5.959,0-8.23l-11.97-11.964
			L72.931,102.272z"/>
		<path fill="#FFFFFF" d="M75.815,153.336l11.967-11.968c6.653-6.654,17.435-6.654,24.091,0c6.652,6.655,6.652,17.438,0,24.094
			l-11.966,11.964l-7.935-7.93l11.968-11.971c2.271-2.269,2.271-5.952,0-8.225c-2.271-2.271-5.955-2.271-8.226,0l-11.967,11.97
			L75.815,153.336z"/>
		<path fill="#FFFFFF" d="M102.269,126.884l11.969-11.971c6.652-6.65,17.437-6.65,24.09,0c6.655,6.653,6.655,17.44,0,24.095
			l-11.967,11.965l-7.933-7.935l11.968-11.964c2.271-2.272,2.271-5.958,0-8.23c-2.27-2.271-5.952-2.271-8.225,0l-11.966,11.975
			L102.269,126.884z"/>
		<path fill="#FFFFFF" d="M153.334,123.997l-11.966-11.964c-6.655-6.653-6.655-17.441,0-24.097c6.653-6.648,17.438-6.648,24.092,0
			l11.967,11.969l-7.934,7.936l-11.967-11.969c-2.271-2.271-5.954-2.271-8.227,0c-2.271,2.271-2.271,5.956,0,8.227l11.97,11.966
			L153.334,123.997z"/>
		<path fill="#FFFFFF" d="M126.883,97.545l-11.968-11.97c-6.654-6.651-6.654-17.438,0-24.09c6.651-6.654,17.437-6.654,24.091,0
			l11.966,11.967l-7.935,7.934l-11.965-11.969c-2.272-2.271-5.956-2.271-8.228,0c-2.271,2.271-2.271,5.954,0,8.228l11.973,11.966
			L126.883,97.545z"/>
		<path fill="#FFFFFF" d="M123.997,46.477L112.03,58.444c-6.651,6.653-17.437,6.653-24.091,0c-6.653-6.652-6.653-17.438,0-24.092
			l11.968-11.967l7.931,7.934L95.873,42.287c-2.274,2.271-2.274,5.954,0,8.226c2.27,2.272,5.952,2.272,8.227-0.002l11.966-11.967
			L123.997,46.477z"/>
		<path fill="#FFFFFF" d="M97.542,72.932L85.577,84.896c-6.654,6.657-17.439,6.657-24.091,0c-6.654-6.651-6.654-17.437,0-24.09
			L73.453,48.84l7.931,7.932L69.417,68.739c-2.272,2.273-2.272,5.956,0,8.227c2.271,2.271,5.955,2.271,8.224,0l11.967-11.968
			L97.542,72.932z"/>
		<path fill="#FFFFFF" d="M46.478,75.814l11.965,11.967c6.655,6.657,6.655,17.439,0,24.093c-6.648,6.654-17.435,6.654-24.09,0
			L22.385,99.906l7.934-7.935l11.968,11.971c2.271,2.275,5.953,2.275,8.225,0c2.27-2.272,2.27-5.956,0-8.225L38.547,83.748
			L46.478,75.814z"/>
	</g>
</g>
</svg>
